PathFileType	4	(X/Y/Z)	s07c0302.trc
DataRate	CameraRate	NumFrames	NumMarkers	Units	OrigDataRate	OrigDataStartFrame	OrigNumFrames
200	200	6	48	mm	200	1750	2000
Frame#	Time	racr			lacr			c7			jug			rlel			rdr			llel			ldr			s2			lic			ric			lasi			rasi			rpsi			lpsi			rgt			lgt			rth1			rth2			rth3			rth4			rlfc			rmfc			rsh1			rsh2			rsh3			rsh4			rlmal			rcal			rtoe			rmt5			lth1			lth2			lth4			lth3			llfc			lmfc			lsh1			lsh2			lsh3			lsh4			llmal			lcal			ltoe			lmt5			SBIKE			LBIKE			RBIKE			
		X1	Y1	Z1	X2	Y2	Z2	X3	Y3	Z3	X4	Y4	Z4	X5	Y5	Z5	X6	Y6	Z6	X7	Y7	Z7	X8	Y8	Z8	X9	Y9	Z9	X10	Y10	Z10	X11	Y11	Z11	X12	Y12	Z12	X13	Y13	Z13	X14	Y14	Z14	X15	Y15	Z15	X16	Y16	Z16	X17	Y17	Z17	X18	Y18	Z18	X19	Y19	Z19	X20	Y20	Z20	X21	Y21	Z21	X22	Y22	Z22	X23	Y23	Z23	X24	Y24	Z24	X25	Y25	Z25	X26	Y26	Z26	X27	Y27	Z27	X28	Y28	Z28	X29	Y29	Z29	X30	Y30	Z30	X31	Y31	Z31	X32	Y32	Z32	X33	Y33	Z33	X34	Y34	Z34	X35	Y35	Z35	X36	Y36	Z36	X37	Y37	Z37	X38	Y38	Z38	X39	Y39	Z39	X40	Y40	Z40	X41	Y41	Z41	X42	Y42	Z42	X43	Y43	Z43	X44	Y44	Z44	X45	Y45	Z45	X46	Y46	Z46	X47	Y47	Z47	X48	Y48	Z48	
1750	8.7500	427.624010	1450.874762	-102.899600	418.305283	1433.589930	-373.214060	372.095782	1498.463465	-241.893041	350.902888	1356.622907	-234.098004	544.620906	1135.773615	-31.680026	727.559196	903.848724	-80.937325	538.016312	1125.305015	-438.624694	729.324625	896.604446	-410.648740	-165.677314	1200.039510	-252.613840	1.778743	1252.756177	-383.385332	-5.215111	1252.477713	-91.211396	33.585862	1177.277199	-357.263542	9.688198	1196.759572	-109.174616	-143.738786	1240.824360	-199.756540	-123.769527	1248.621039	-306.930059	-64.087383	1127.797291	-47.091850	-52.346977	1094.590639	-414.971999	78.516969	1077.058792	-36.156173	165.655336	1065.612233	-39.511214	235.747501	1017.942062	-29.085408	177.929884	1096.363823	-57.398943	351.918589	935.175022	-56.756775	354.348395	926.749495	-164.209302	264.358190	823.768065	-44.538915	223.309756	749.437220	-69.254318	149.399893	701.917496	-73.039282	237.528698	744.157517	-107.636409	51.067992	611.579648	-84.899873	-23.560585	613.145425	-116.424890	207.360865	436.209139	-128.718875	125.952613	454.030642	-57.585600	6.150022	985.759887	-427.556478	73.834983	929.039493	-428.162752	103.471293	949.532456	-419.883513	103.971589	845.377190	-423.460312	205.800933	701.885899	-386.135057	197.021306	683.125347	-293.835578	181.082840	559.629344	-412.337921	192.618771	476.574894	-393.434128	162.605545	391.411988	-400.902445	195.267527	479.408470	-351.614091	137.462965	259.628283	-397.932943	70.367421	220.510612	-364.853525	359.704565	200.240137	-361.833873	282.208077	171.179746	-420.523353	-262.983319	966.400735	-237.876210	-83.063478	79.093561	-436.875481	-82.915780	79.152040	-39.346587	
1751	8.7550	427.763912	1450.910428	-102.234456	418.910122	1433.778728	-372.843404	372.643643	1498.653762	-241.356258	351.190640	1357.039045	-233.697707	544.551679	1135.729485	-31.799010	727.445501	903.834976	-80.982670	538.180812	1125.235973	-437.931602	729.336999	896.512284	-410.529771	-164.831099	1200.075858	-252.341609	2.342550	1252.721498	-383.398929	-4.174467	1252.406735	-91.267115	34.221440	1177.131655	-357.517399	10.786428	1196.891032	-109.413365	-142.898861	1241.012012	-199.528335	-123.041382	1248.606429	-306.913545	-62.479084	1128.514828	-46.640714	-51.921119	1094.384651	-414.915079	80.184557	1079.619506	-36.551807	167.435228	1069.189031	-40.122601	238.126545	1022.414336	-29.518600	179.300779	1099.798259	-58.413509	354.838803	940.372516	-57.077333	357.252143	931.487362	-164.120345	268.238526	828.211393	-44.923752	227.756379	753.250114	-69.783096	153.901340	705.828101	-73.318595	241.499111	748.803175	-107.990105	55.926567	614.998721	-85.068160	-18.744725	615.743345	-116.866895	213.842618	440.983572	-128.938989	131.966466	458.005421	-57.899743	5.501523	984.877862	-427.582102	72.447910	927.320134	-428.156321	102.072675	947.126287	-418.949507	101.544382	843.216798	-423.622138	201.236949	698.507495	-386.064813	192.084776	679.720607	-293.749616	175.634373	556.639236	-412.356220	187.008307	473.549063	-393.569936	156.678912	388.458958	-400.983402	189.981533	476.097860	-351.639337	131.459637	256.540171	-397.814866	64.432815	217.342474	-364.453397	353.565630	196.181882	-361.744508	280.460175	165.443093	-419.415164	-262.973794	966.424531	-237.845653	-83.063224	79.084040	-436.897369	-82.911485	79.108800	-39.337645	
1752	8.7600	427.904880	1450.990947	-101.676333	419.569854	1433.978853	-372.450224	373.118568	1498.822439	-240.845791	351.552482	1357.299142	-233.376014	544.441768	1135.686705	-31.829647	727.408277	904.199471	-81.508722	538.301471	1125.232438	-437.380648	729.341966	896.456413	-410.419640	-164.009651	1200.151551	-252.002939	2.873293	1252.838826	-383.459571	-3.259227	1252.410692	-91.274376	34.672282	1177.033791	-357.726321	11.861486	1197.070968	-109.763103	-142.044648	1241.123298	-199.244930	-122.382102	1248.719748	-306.759576	-60.803516	1129.219052	-46.227898	-51.585567	1094.235323	-414.831179	81.823952	1082.056234	-36.918665	169.161732	1072.522870	-40.775435	240.343877	1026.891145	-29.843554	180.480168	1102.333158	-60.041061	357.723884	945.351978	-57.574586	360.127744	936.162742	-164.292818	272.137238	832.575984	-45.408706	231.925840	757.226902	-70.435500	158.495555	709.502479	-73.587421	245.715443	753.078765	-108.463803	61.070717	617.828888	-85.353008	-13.742571	617.939054	-116.832566	220.539891	445.568998	-129.091464	138.356497	462.047729	-58.004945	4.923383	984.042700	-427.583917	71.207583	925.738707	-428.106897	100.972215	945.192406	-418.622498	99.309345	841.359928	-423.897070	196.695606	695.433862	-386.067337	187.507569	676.728588	-293.638508	170.199109	553.850551	-412.298752	181.375774	470.695723	-393.702108	150.593830	385.759668	-400.940687	184.624447	473.097024	-351.671837	125.225849	253.534074	-397.270025	58.222477	215.195950	-364.706097	347.134147	192.369048	-361.777123	273.827028	161.972258	-419.347405	-262.958940	966.447154	-237.810352	-83.066676	79.082005	-436.885356	-82.899681	79.106752	-39.352064	
1753	8.7650	428.026037	1451.048499	-101.132682	420.132592	1434.168446	-372.073186	373.577353	1499.016997	-240.322697	351.939655	1357.570822	-232.993204	544.292251	1135.659423	-31.773326	727.323038	904.255648	-81.499969	538.435900	1125.276926	-436.849685	729.347947	896.364847	-410.270900	-163.267228	1200.248716	-251.627933	3.448252	1252.982146	-383.571243	-2.486527	1252.289819	-91.276748	35.168701	1176.980436	-357.940080	12.950672	1197.270391	-110.067400	-141.252113	1241.270589	-198.912070	-121.846170	1248.808195	-306.452370	-59.164550	1129.919264	-45.800860	-51.302836	1094.116329	-414.716127	83.437028	1084.437666	-37.247707	170.812368	1075.827216	-41.360821	242.530966	1031.036944	-30.426680	181.730879	1105.595560	-60.896642	360.562532	950.234985	-58.205082	362.963298	940.873165	-164.877219	276.049897	836.730563	-45.898886	236.385497	761.240967	-70.776713	162.911811	713.038307	-73.950180	250.004212	757.181831	-109.041510	66.146544	620.796545	-85.333633	-8.466007	619.970835	-116.909440	227.343189	449.886851	-129.302871	145.129181	465.467794	-58.131058	4.397569	983.431481	-427.635230	70.064381	924.491960	-428.123795	99.969407	943.596196	-418.249035	97.255423	839.853889	-424.215638	192.290456	692.606608	-386.190712	182.896205	673.891413	-293.652777	164.822995	551.487591	-412.334683	175.752115	468.223223	-393.779848	144.592490	383.393251	-400.889880	179.250147	470.340528	-351.424364	118.845130	251.085008	-396.947903	51.869292	212.936191	-364.289467	340.633502	188.816433	-361.632026	267.112558	158.752676	-419.279439	-262.961789	966.447064	-237.769493	-83.071960	79.077087	-436.879663	-82.908485	79.100721	-39.355565	
1754	8.7700	428.111095	1451.104502	-100.597555	420.736586	1434.391753	-371.743815	374.026021	1499.195206	-239.823722	352.174297	1357.797020	-232.742818	544.110644	1135.624365	-31.625626	727.190567	903.901154	-81.049824	538.624998	1125.360133	-436.266396	729.357492	896.319355	-410.204168	-162.586286	1200.357780	-251.196969	3.771322	1253.094044	-383.475304	-1.507432	1252.285951	-91.322916	35.593337	1177.025778	-358.147239	13.933033	1197.572706	-110.323110	-140.457647	1241.421065	-198.603114	-121.306676	1248.936841	-306.253913	-57.566265	1130.559750	-45.489866	-51.110616	1094.108591	-414.595928	84.936079	1086.683545	-37.607522	172.434542	1078.879205	-41.937548	244.623363	1034.946456	-31.068098	182.931761	1108.692594	-61.685937	363.466606	955.128054	-58.874091	365.732164	945.463384	-165.476687	279.915006	840.833906	-46.473280	240.674126	765.053767	-71.352664	167.639126	716.198649	-74.262675	254.284901	761.074926	-109.613994	71.503173	623.273879	-85.411013	-3.618013	621.278753	-117.629220	234.412272	453.901584	-129.594477	151.917606	468.741008	-58.169543	3.822825	983.029968	-427.700214	69.040905	923.475874	-428.095981	98.983960	942.281022	-417.860112	95.425049	838.648245	-424.642655	188.181455	690.027177	-386.180651	178.148365	671.129516	-294.277740	159.623608	549.335430	-412.222098	170.161127	466.012606	-393.803344	138.670994	380.206083	-398.688602	173.996392	468.367624	-351.809407	112.457871	248.711201	-396.606717	45.263648	211.200329	-364.138470	334.038276	185.539848	-361.693384	260.266339	155.792243	-419.155793	-262.960483	966.464500	-237.746548	-83.076299	79.081034	-436.898950	-82.898326	79.099874	-39.357136	
1755	8.7750	428.153431	1451.205323	-100.048049	421.231039	1434.564999	-371.390644	374.411552	1499.359133	-239.399787	352.372190	1358.072737	-232.496688	543.949002	1135.600823	-31.423677	727.084122	903.969501	-80.988532	538.817793	1125.496586	-435.768178	729.367396	896.289664	-410.163267	-161.967189	1200.495961	-250.734445	4.005284	1253.347469	-383.412021	-0.785197	1252.384316	-91.375388	35.900715	1177.152292	-358.317281	14.931532	1197.931394	-110.506036	-139.769362	1241.584027	-198.190580	-120.858113	1249.010740	-306.111500	-56.052016	1131.200094	-45.168365	-50.870645	1094.499913	-414.649623	86.376376	1088.687886	-37.913236	173.942147	1081.785866	-42.545969	246.588970	1038.602727	-31.703885	184.117371	1111.663040	-62.350245	366.162531	959.734133	-59.668402	368.346483	949.752795	-165.791269	283.699697	844.653113	-47.162006	245.013023	768.521532	-71.947721	172.498107	719.165281	-74.598537	258.612049	764.813244	-110.198130	77.182545	625.232280	-85.508348	1.832488	622.936169	-116.821685	241.164945	457.619590	-129.689411	158.990060	471.648590	-58.392657	3.401522	982.790084	-427.814394	68.090319	922.703072	-428.174699	98.092405	941.216828	-417.527117	93.817061	837.638533	-424.999955	184.463220	687.841937	-386.136729	174.091749	668.823894	-294.292208	154.537055	547.462947	-412.239420	164.635760	464.051362	-393.840944	132.583933	379.316806	-400.057797	168.672669	466.071036	-351.551741	105.819129	247.050018	-396.339807	38.666762	209.705865	-363.760379	327.245171	182.399960	-361.628834	245.634435	159.214817	-425.277747	-262.944175	966.469416	-237.724361	-83.060317	79.083090	-436.874333	-82.907685	79.104754	-39.330874	
